<svg width="135" height="24" viewBox="0 0 135 24" fill="none" xmlns="http://www.w3.org/2000/svg">
<path d="M9.552 8.496C8.568 7.152 7.104 6.936 6.192 6.936C4.704 6.936 3.408 7.464 2.472 8.4C1.488 9.384 0.816 10.92 0.816 12.72C0.816 14.136 1.248 15.528 2.376 16.728C3.552 17.976 4.848 18.36 6.384 18.36C7.272 18.36 8.616 18.144 9.552 16.704V18H13.008L13.008 7.296L9.552 7.296V8.496ZM7.056 9.912C7.68 9.912 8.448 10.152 8.976 10.656C9.48 11.136 9.768 11.856 9.768 12.624C9.768 13.536 9.384 14.208 8.928 14.64C8.472 15.096 7.824 15.384 7.128 15.384C6.312 15.384 5.568 15.048 5.088 14.544C4.776 14.208 4.368 13.584 4.368 12.624C4.368 11.664 4.8 11.04 5.16 10.68C5.616 10.224 6.312 9.912 7.056 9.912ZM15.6878 18H19.1438L19.1438 12.504C19.1438 11.808 19.2398 11.04 19.8158 10.464C20.0798 10.176 20.5358 9.888 21.2558 9.888C21.8798 9.888 22.3118 10.104 22.5758 10.368C23.1278 10.92 23.1518 11.808 23.1518 12.504L23.1518 18H26.6078L26.6078 11.232C26.6078 10.368 26.5358 9.096 25.5278 8.088C24.6158 7.176 23.3918 7.008 22.4558 7.008C21.4478 7.008 20.1998 7.224 19.1438 8.568V7.296H15.6878L15.6878 18ZM37.5129 8.496C36.5289 7.152 35.0649 6.936 34.1529 6.936C32.6649 6.936 31.3689 7.464 30.4329 8.4C29.4489 9.384 28.7769 10.92 28.7769 12.72C28.7769 14.136 29.2089 15.528 30.3369 16.728C31.5129 17.976 32.8089 18.36 34.3449 18.36C35.2329 18.36 36.5769 18.144 37.5129 16.704V18H40.9689V7.296H37.5129V8.496ZM35.0169 9.912C35.6409 9.912 36.4089 10.152 36.9369 10.656C37.4409 11.136 37.7289 11.856 37.7289 12.624C37.7289 13.536 37.3449 14.208 36.8889 14.64C36.4329 15.096 35.7849 15.384 35.0889 15.384C34.2729 15.384 33.5289 15.048 33.0489 14.544C32.7369 14.208 32.3289 13.584 32.3289 12.624C32.3289 11.664 32.7609 11.04 33.1209 10.68C33.5769 10.224 34.2729 9.912 35.0169 9.912ZM51.7847 8.544C51.4007 7.968 50.5367 6.936 48.5927 6.936C46.6007 6.936 45.3527 7.8 44.7047 8.472C43.7927 9.408 43.1207 10.92 43.1207 12.744C43.1207 14.592 43.8167 15.888 44.6807 16.776C45.6647 17.76 46.9367 18.288 48.5927 18.288C50.5607 18.288 51.3767 17.352 51.7847 16.68V17.904C51.7847 18.36 51.7607 19.488 51.0887 20.136C50.8487 20.352 50.3447 20.712 49.3607 20.712C48.8567 20.712 48.2807 20.616 47.8727 20.352C47.5847 20.16 47.2487 19.848 47.1047 19.296H43.3367C43.5767 20.64 44.2727 21.552 44.9447 22.128C46.2887 23.28 47.9927 23.496 49.4087 23.496C50.5847 23.496 52.6007 23.328 53.9207 21.912C55.1687 20.568 55.2407 18.864 55.2407 17.352V7.296L51.7847 7.296V8.544ZM49.3847 9.936C50.0087 9.936 50.7527 10.152 51.2567 10.608C51.7127 11.04 52.0727 11.736 52.0727 12.576C52.0727 13.368 51.7607 14.112 51.2327 14.616C50.8727 14.952 50.2727 15.312 49.3607 15.312C48.5447 15.312 47.8967 15.048 47.4167 14.544C46.9367 14.04 46.6727 13.32 46.6727 12.624C46.6727 11.976 46.9607 11.136 47.4887 10.632C47.9207 10.224 48.6167 9.936 49.3847 9.936ZM66.0581 8.544C65.6741 7.968 64.8101 6.936 62.8661 6.936C60.8741 6.936 59.6261 7.8 58.9781 8.472C58.0661 9.408 57.3941 10.92 57.3941 12.744C57.3941 14.592 58.0901 15.888 58.9541 16.776C59.9381 17.76 61.2101 18.288 62.8661 18.288C64.8341 18.288 65.6501 17.352 66.0581 16.68V17.904C66.0581 18.36 66.0341 19.488 65.3621 20.136C65.1221 20.352 64.6181 20.712 63.6341 20.712C63.1301 20.712 62.5541 20.616 62.1461 20.352C61.8581 20.16 61.5221 19.848 61.3781 19.296H57.6101C57.8501 20.64 58.5461 21.552 59.2181 22.128C60.5621 23.28 62.2661 23.496 63.6821 23.496C64.8581 23.496 66.8741 23.328 68.1941 21.912C69.4421 20.568 69.5141 18.864 69.5141 17.352V7.296H66.0581V8.544ZM63.6581 9.936C64.2821 9.936 65.0261 10.152 65.5301 10.608C65.9861 11.04 66.3461 11.736 66.3461 12.576C66.3461 13.368 66.0341 14.112 65.5061 14.616C65.1461 14.952 64.5461 15.312 63.6341 15.312C62.8181 15.312 62.1701 15.048 61.6901 14.544C61.2101 14.04 60.9461 13.32 60.9461 12.624C60.9461 11.976 61.2341 11.136 61.7621 10.632C62.1941 10.224 62.8901 9.936 63.6581 9.936ZM72.1956 18H75.6516V13.656C75.6516 12.744 75.7236 11.592 76.4916 10.776C76.9236 10.32 77.4756 10.056 78.2196 10.056C78.8196 10.056 79.3236 10.2 79.7796 10.44L79.9716 7.2C79.5876 7.08 79.2756 7.032 78.8436 7.032C78.1716 7.032 77.5716 7.128 76.9956 7.488C76.4436 7.824 75.9636 8.376 75.6516 8.976V7.296H72.1956V18ZM89.2629 8.496C88.2789 7.152 86.8149 6.936 85.9029 6.936C84.4149 6.936 83.1189 7.464 82.1829 8.4C81.1989 9.384 80.5269 10.92 80.5269 12.72C80.5269 14.136 80.9589 15.528 82.0869 16.728C83.2629 17.976 84.5589 18.36 86.0949 18.36C86.9829 18.36 88.3269 18.144 89.2629 16.704V18H92.7189V7.296H89.2629V8.496ZM86.7669 9.912C87.3909 9.912 88.1589 10.152 88.6869 10.656C89.1909 11.136 89.4789 11.856 89.4789 12.624C89.4789 13.536 89.0949 14.208 88.6389 14.64C88.1829 15.096 87.5349 15.384 86.8389 15.384C86.0229 15.384 85.2789 15.048 84.7989 14.544C84.4869 14.208 84.0789 13.584 84.0789 12.624C84.0789 11.664 84.5109 11.04 84.8709 10.68C85.3269 10.224 86.0229 9.912 86.7669 9.912ZM95.3987 18H98.8547V12.504C98.8547 11.808 98.9507 11.04 99.5267 10.464C99.7907 10.176 100.247 9.888 100.967 9.888C101.591 9.888 102.023 10.104 102.287 10.368C102.839 10.92 102.863 11.808 102.863 12.504V18H106.319V11.232C106.319 10.368 106.247 9.096 105.239 8.088C104.327 7.176 103.103 7.008 102.167 7.008C101.159 7.008 99.9107 7.224 98.8547 8.568V7.296H95.3987V18ZM109.256 7.296V23.496L112.712 23.496V7.296H109.256ZM108.968 2.736C108.968 3.864 109.856 4.752 110.984 4.752C112.112 4.752 113 3.864 113 2.736C113 1.608 112.112 0.719999 110.984 0.719999C109.856 0.719999 108.968 1.608 108.968 2.736ZM123.857 8.496C122.873 7.152 121.409 6.936 120.497 6.936C119.009 6.936 117.713 7.464 116.777 8.4C115.793 9.384 115.121 10.92 115.121 12.72C115.121 14.136 115.553 15.528 116.681 16.728C117.857 17.976 119.153 18.36 120.689 18.36C121.577 18.36 122.921 18.144 123.857 16.704V18H127.313V7.296H123.857V8.496ZM121.361 9.912C121.985 9.912 122.753 10.152 123.281 10.656C123.785 11.136 124.073 11.856 124.073 12.624C124.073 13.536 123.689 14.208 123.233 14.64C122.777 15.096 122.129 15.384 121.433 15.384C120.617 15.384 119.873 15.048 119.393 14.544C119.081 14.208 118.673 13.584 118.673 12.624C118.673 11.664 119.105 11.04 119.465 10.68C119.921 10.224 120.617 9.912 121.361 9.912ZM129.8 16.2C129.8 17.424 130.76 18.384 131.984 18.384C133.208 18.384 134.168 17.424 134.168 16.2C134.168 14.976 133.208 14.016 131.984 14.016C130.76 14.016 129.8 14.976 129.8 16.2Z" fill="#232323"/>
</svg>
