<svg width="28" height="157" viewBox="0 0 28 157" fill="none" xmlns="http://www.w3.org/2000/svg">
<path d="M9.912 145.856C8.344 147.004 8.092 148.712 8.092 149.776C8.092 151.512 8.708 153.024 9.8 154.116C10.948 155.264 12.74 156.048 14.84 156.048C16.492 156.048 18.116 155.544 19.516 154.228C20.972 152.856 21.42 151.344 21.42 149.552C21.42 148.516 21.168 146.948 19.488 145.856L21 145.856L21 141.824L8.512 141.824L8.512 145.856L9.912 145.856ZM11.564 148.768C11.564 148.04 11.844 147.144 12.432 146.528C12.992 145.94 13.832 145.604 14.728 145.604C15.792 145.604 16.576 146.052 17.08 146.584C17.612 147.116 17.948 147.872 17.948 148.684C17.948 149.636 17.556 150.504 16.968 151.064C16.576 151.428 15.848 151.904 14.728 151.904C13.608 151.904 12.88 151.4 12.46 150.98C11.928 150.448 11.564 149.636 11.564 148.768ZM21 138.698L21 134.666L14.588 134.666C13.776 134.666 12.88 134.554 12.208 133.882C11.872 133.574 11.536 133.042 11.536 132.202C11.536 131.474 11.788 130.97 12.096 130.662C12.74 130.018 13.776 129.99 14.588 129.99L21 129.99L21 125.958L13.104 125.958C12.096 125.958 10.612 126.042 9.436 127.218C8.372 128.282 8.176 129.71 8.176 130.802C8.176 131.978 8.428 133.434 9.996 134.666L8.512 134.666L8.512 138.698L21 138.698ZM9.912 113.235C8.344 114.383 8.092 116.091 8.092 117.155C8.092 118.891 8.708 120.403 9.8 121.495C10.948 122.643 12.74 123.427 14.84 123.427C16.492 123.427 18.116 122.923 19.516 121.607C20.972 120.235 21.42 118.723 21.42 116.931C21.42 115.895 21.168 114.327 19.488 113.235L21 113.235L21 109.203L8.512 109.203L8.512 113.235L9.912 113.235ZM11.564 116.147C11.564 115.419 11.844 114.523 12.432 113.907C12.992 113.319 13.832 112.983 14.728 112.983C15.792 112.983 16.576 113.431 17.08 113.963C17.612 114.495 17.948 115.251 17.948 116.063C17.948 117.015 17.556 117.883 16.968 118.443C16.576 118.807 15.848 119.283 14.728 119.283C13.608 119.283 12.88 118.779 12.46 118.359C11.928 117.827 11.564 117.015 11.564 116.147ZM9.968 96.5845C9.296 97.0325 8.092 98.0405 8.092 100.308C8.092 102.632 9.1 104.088 9.884 104.844C10.976 105.908 12.74 106.692 14.868 106.692C17.024 106.692 18.536 105.88 19.572 104.872C20.72 103.724 21.336 102.24 21.336 100.308C21.336 98.0125 20.244 97.0605 19.46 96.5845L20.888 96.5845C21.42 96.5845 22.736 96.6125 23.492 97.3965C23.744 97.6765 24.164 98.2645 24.164 99.4125C24.164 100 24.052 100.672 23.744 101.148C23.52 101.484 23.156 101.876 22.512 102.044L22.512 106.44C24.08 106.16 25.144 105.348 25.816 104.564C27.16 102.996 27.412 101.008 27.412 99.3565C27.412 97.9845 27.216 95.6325 25.564 94.0925C23.996 92.6365 22.008 92.5525 20.244 92.5525L8.512 92.5525L8.512 96.5845L9.968 96.5845ZM11.592 99.3845C11.592 98.6565 11.844 97.7885 12.376 97.2005C12.88 96.6685 13.692 96.2485 14.672 96.2485C15.596 96.2485 16.464 96.6125 17.052 97.2285C17.444 97.6485 17.864 98.3485 17.864 99.4125C17.864 100.364 17.556 101.12 16.968 101.68C16.38 102.24 15.54 102.548 14.728 102.548C13.972 102.548 12.992 102.212 12.404 101.596C11.928 101.092 11.592 100.28 11.592 99.3845ZM9.968 79.9321C9.296 80.3801 8.092 81.3881 8.092 83.6561C8.092 85.9801 9.1 87.4361 9.884 88.1921C10.976 89.2561 12.74 90.0401 14.868 90.0401C17.024 90.0401 18.536 89.2281 19.572 88.2201C20.72 87.0721 21.336 85.5881 21.336 83.6561C21.336 81.3601 20.244 80.4081 19.46 79.9321L20.888 79.9321C21.42 79.9321 22.736 79.9601 23.492 80.7441C23.744 81.0241 24.164 81.6121 24.164 82.7601C24.164 83.3481 24.052 84.0201 23.744 84.4961C23.52 84.8321 23.156 85.2241 22.512 85.3921L22.512 89.7881C24.08 89.5081 25.144 88.6961 25.816 87.9121C27.16 86.3441 27.412 84.3561 27.412 82.7041C27.412 81.3321 27.216 78.9801 25.564 77.4401C23.996 75.9841 22.008 75.9001 20.244 75.9001L8.512 75.9001L8.512 79.9321L9.968 79.9321ZM11.592 82.7321C11.592 82.0041 11.844 81.1361 12.376 80.5481C12.88 80.0161 13.692 79.5961 14.672 79.5961C15.596 79.5961 16.464 79.9601 17.052 80.5761C17.444 80.9961 17.864 81.6961 17.864 82.7601C17.864 83.7121 17.556 84.4681 16.968 85.0281C16.38 85.5881 15.54 85.8961 14.728 85.8961C13.972 85.8961 12.992 85.5601 12.404 84.9441C11.928 84.4401 11.592 83.6281 11.592 82.7321ZM21 72.7718L21 68.7398L15.932 68.7398C14.868 68.7398 13.524 68.6558 12.572 67.7598C12.04 67.2558 11.732 66.6118 11.732 65.7438C11.732 65.0438 11.9 64.4558 12.18 63.9238L8.4 63.6998C8.26 64.1478 8.204 64.5118 8.204 65.0158C8.204 65.7998 8.316 66.4998 8.736 67.1718C9.128 67.8158 9.772 68.3758 10.472 68.7398L8.512 68.7398L8.512 72.7718L21 72.7718ZM9.91199 52.8598C8.34399 54.0078 8.09199 55.7158 8.09199 56.7798C8.09199 58.5158 8.708 60.0278 9.8 61.1198C10.948 62.2678 12.74 63.0518 14.84 63.0518C16.492 63.0518 18.116 62.5478 19.516 61.2318C20.972 59.8598 21.42 58.3478 21.42 56.5558C21.42 55.5198 21.168 53.9518 19.488 52.8598L21 52.8598L21 48.8278L8.51199 48.8278L8.512 52.8598L9.91199 52.8598ZM11.564 55.7718C11.564 55.0438 11.844 54.1478 12.432 53.5318C12.992 52.9438 13.832 52.6078 14.728 52.6078C15.792 52.6078 16.576 53.0558 17.08 53.5878C17.612 54.1198 17.948 54.8758 17.948 55.6878C17.948 56.6398 17.556 57.5078 16.968 58.0678C16.576 58.4318 15.848 58.9078 14.728 58.9078C13.608 58.9078 12.88 58.4038 12.46 57.9838C11.928 57.4518 11.564 56.6398 11.564 55.7718ZM21 45.7015L21 41.6695L14.588 41.6695C13.776 41.6695 12.88 41.5575 12.208 40.8855C11.872 40.5775 11.536 40.0455 11.536 39.2055C11.536 38.4775 11.788 37.9735 12.096 37.6655C12.74 37.0215 13.776 36.9935 14.588 36.9935L21 36.9935L21 32.9615L13.104 32.9615C12.096 32.9615 10.612 33.0455 9.43599 34.2215C8.37199 35.2855 8.17599 36.7135 8.17599 37.8055C8.17599 38.9815 8.42799 40.4375 9.99599 41.6695L8.51199 41.6695L8.51199 45.7015L21 45.7015ZM8.51199 29.5348L27.412 29.5347L27.412 25.5027L8.51199 25.5028L8.51199 29.5348ZM3.19199 29.8708C4.50799 29.8708 5.54399 28.8348 5.54399 27.5188C5.54399 26.2028 4.50799 25.1668 3.19199 25.1668C1.87599 25.1668 0.839993 26.2028 0.839994 27.5188C0.839994 28.8348 1.87599 29.8708 3.19199 29.8708ZM9.91199 12.5005C8.34399 13.6485 8.09199 15.3565 8.09199 16.4205C8.09199 18.1565 8.70799 19.6685 9.79999 20.7605C10.948 21.9085 12.74 22.6925 14.84 22.6925C16.492 22.6925 18.116 22.1885 19.516 20.8725C20.972 19.5005 21.42 17.9885 21.42 16.1965C21.42 15.1605 21.168 13.5925 19.488 12.5005L21 12.5005L21 8.46847L8.51199 8.46847L8.51199 12.5005L9.91199 12.5005ZM11.564 15.4125C11.564 14.6845 11.844 13.7885 12.432 13.1725C12.992 12.5845 13.832 12.2485 14.728 12.2485C15.792 12.2485 16.576 12.6965 17.08 13.2285C17.612 13.7605 17.948 14.5165 17.948 15.3285C17.948 16.2805 17.556 17.1485 16.968 17.7085C16.576 18.0725 15.848 18.5485 14.728 18.5485C13.608 18.5485 12.88 18.0445 12.46 17.6245C11.928 17.0925 11.564 16.2805 11.564 15.4125ZM18.9 5.56609C20.328 5.56609 21.448 4.44609 21.448 3.01809C21.448 1.59009 20.328 0.470094 18.9 0.470094C17.472 0.470094 16.352 1.59009 16.352 3.01809C16.352 4.44609 17.472 5.56609 18.9 5.56609Z" fill="#292929"/>
</svg>
