<svg width="17" height="20" viewBox="0 0 17 20" fill="none" xmlns="http://www.w3.org/2000/svg">
<g clip-path="url(#clip0)">
<path d="M6.99016 13.2293C6.41638 15.9828 5.71555 18.6225 3.63958 20.0012C2.99879 15.8397 4.58054 12.7144 5.31487 9.39619C4.06259 7.46685 5.46565 3.58389 8.10702 4.54089C11.3571 5.71767 5.29254 11.714 9.36349 12.4627C13.6145 13.2447 15.3499 5.71255 12.7141 3.26318C8.90558 -0.273517 1.62784 3.18269 2.52272 8.24625C2.74051 9.48435 4.13798 9.86 3.08115 11.5683C0.643607 11.0738 -0.0837476 9.31442 0.00978944 6.96854C0.160566 3.12902 3.77919 0.440723 7.40899 0.0689091C11.9993 -0.401288 16.3076 1.61111 16.9023 5.56306C17.5724 10.0235 14.8305 14.8546 9.92192 14.507C8.59146 14.4125 8.03303 13.8094 6.99016 13.2293Z" fill="#292929"/>
</g>
<defs>
<clipPath id="clip0">
<rect width="17" height="20" fill="white"/>
</clipPath>
</defs>
</svg>
