<svg width="17" height="20" viewBox="0 0 17 20" fill="none" xmlns="http://www.w3.org/2000/svg">
<g clip-path="url(#clip0)">
<path d="M6.98992 13.2293C6.41613 15.9828 5.7153 18.6225 3.63934 20.0012C2.99854 15.8397 4.58029 12.7144 5.31463 9.39619C4.06235 7.46685 5.46541 3.58389 8.10678 4.54089C11.3568 5.71767 5.29229 11.714 9.36324 12.4627C13.6143 13.2447 15.3496 5.71255 12.7138 3.26318C8.90533 -0.273517 1.6276 3.18269 2.52248 8.24625C2.74027 9.48435 4.13774 9.86 3.08091 11.5683C0.643363 11.0738 -0.0839917 9.31442 0.0095453 6.96854C0.160321 3.12902 3.77895 0.440723 7.40874 0.0689091C11.999 -0.401288 16.3073 1.61111 16.902 5.56306C17.5722 10.0235 14.8303 14.8546 9.92167 14.507C8.59122 14.4125 8.03279 13.8094 6.98992 13.2293Z" fill="#F0EFEB"/>
</g>
<defs>
<clipPath id="clip0">
<rect width="17" height="20" fill="white"/>
</clipPath>
</defs>
</svg>
