<svg width="45" height="47" viewBox="0 0 45 47" fill="none" xmlns="http://www.w3.org/2000/svg">
<circle cx="22" cy="25" r="22" fill="#232323"/>
<path d="M21.8803 20.912C20.7323 19.344 19.0243 19.092 17.9603 19.092C16.2243 19.092 14.7123 19.708 13.6203 20.8C12.4723 21.948 11.6883 23.74 11.6883 25.84C11.6883 27.492 12.1923 29.116 13.5083 30.516C14.8803 31.972 16.3923 32.42 18.1843 32.42C19.2203 32.42 20.7883 32.168 21.8803 30.488V32L25.9123 32V19.512H21.8803V20.912ZM18.9683 22.564C19.6963 22.564 20.5923 22.844 21.2083 23.432C21.7963 23.992 22.1323 24.832 22.1323 25.728C22.1323 26.792 21.6843 27.576 21.1523 28.08C20.6203 28.612 19.8643 28.948 19.0523 28.948C18.1003 28.948 17.2323 28.556 16.6723 27.968C16.3083 27.576 15.8323 26.848 15.8323 25.728C15.8323 24.608 16.3363 23.88 16.7563 23.46C17.2883 22.928 18.1003 22.564 18.9683 22.564ZM28.8147 29.9C28.8147 31.328 29.9347 32.448 31.3627 32.448C32.7907 32.448 33.9107 31.328 33.9107 29.9C33.9107 28.472 32.7907 27.352 31.3627 27.352C29.9347 27.352 28.8147 28.472 28.8147 29.9Z" fill="#F0EFEB"/>
</svg>
