<svg width="15" height="24" viewBox="0 0 15 24" fill="none" xmlns="http://www.w3.org/2000/svg">
<path d="M3.10243 14.1343C2.32614 14.1343 1.5479 14.1654 0.774525 14.1168C0.510586 14.1004 0.133115 13.9432 0.0380192 13.7423C-0.0590172 13.5366 0.0419006 13.13 0.202981 12.9262C2.99278 9.38827 5.80489 5.86779 8.61312 2.3444C9.15652 1.66223 9.68925 0.970363 10.2569 0.308576C10.3899 0.153317 10.6412 0.0999474 10.8382 0C10.8818 0.229976 11.0119 0.485182 10.9546 0.686047C10.2123 3.2808 9.44375 5.86682 8.68202 8.45575C8.39285 9.43873 8.74218 9.90644 9.76688 9.90741C11.1739 9.90838 12.5809 9.90838 13.988 9.90353C14.3421 9.90256 14.6963 9.92682 14.8584 10.2897C15.0156 10.641 14.8273 10.9214 14.6032 11.2067C11.3699 15.3201 8.14638 19.4403 4.92089 23.5595C4.8714 23.6225 4.83161 23.7069 4.76563 23.7429C4.58514 23.8399 4.39301 23.9156 4.20573 24C4.15818 23.7836 4.0233 23.5439 4.0757 23.3557C4.4425 22.0243 4.84908 20.7046 5.24111 19.3811C5.62828 18.072 6.01643 16.764 6.39778 15.453C6.62776 14.6622 6.24446 14.1401 5.43227 14.1353C4.65501 14.1304 3.87872 14.1343 3.10243 14.1343Z" fill="#292929"/>
</svg>
