<svg width="17" height="16" viewBox="0 0 17 16" fill="none" xmlns="http://www.w3.org/2000/svg">
<path d="M16.3833 15.994C15.3661 15.9696 14.3731 15.9696 13.356 15.994C13.138 15.994 13.0896 15.9453 13.0896 15.7262C13.0896 13.9248 13.0896 12.0991 13.0896 10.2977C13.0896 9.88391 13.0653 9.47008 12.9442 9.08059C12.581 7.81476 11.1278 7.35225 10.0864 8.20425C9.5294 8.64242 9.31143 9.25099 9.31143 9.98128C9.31143 11.6853 9.31143 13.3893 9.31143 15.0933C9.31143 15.3124 9.28721 15.5315 9.31143 15.7749C9.33564 15.9696 9.23877 16.0183 9.06924 15.994C8.02783 15.994 7.01064 15.994 5.96924 15.994C5.77549 15.994 5.72705 15.9453 5.72705 15.7506C5.75127 14.2169 5.75127 12.6833 5.75127 11.1254C5.75127 9.22665 5.75127 7.3279 5.72705 5.4535C5.72705 5.23441 5.77549 5.18573 5.96924 5.18573C7.01064 5.18573 8.02783 5.18573 9.06924 5.18573C9.26299 5.18573 9.31143 5.23441 9.31143 5.42916C9.31143 5.81864 9.31143 6.20813 9.31143 6.67065C9.38408 6.59762 9.4083 6.57327 9.43252 6.54893C10.3771 5.16139 11.7091 4.7719 13.2833 5.01533C15.0997 5.30744 16.2622 6.57327 16.5528 8.52071C16.6255 8.98322 16.6497 9.44574 16.6497 9.90825C16.6497 11.8557 16.6497 13.7788 16.6497 15.7262C16.6497 15.921 16.6013 15.994 16.3833 15.994Z" fill="#F0EFEB"/>
<path d="M3.78965 10.5903C3.78965 12.2943 3.78965 13.9983 3.78965 15.7023C3.78965 15.9214 3.74121 15.9944 3.52324 15.9944C2.50606 15.9701 1.48887 15.9944 0.47168 15.9944C0.27793 15.9944 0.229492 15.9457 0.229492 15.751C0.229492 12.3186 0.229492 8.86194 0.229492 5.42959C0.229492 5.25919 0.27793 5.18616 0.47168 5.18616C1.51309 5.18616 2.55449 5.18616 3.5959 5.18616C3.81387 5.18616 3.83809 5.25919 3.83809 5.45393C3.78965 7.15793 3.78965 8.86194 3.78965 10.5903Z" fill="#F0EFEB"/>
<path d="M3.95923 2.36223C3.71704 3.33594 2.72407 3.89583 1.58579 3.70109C0.374851 3.50634 -0.303274 2.31354 0.132663 1.14508C0.423288 0.414793 1.12563 -0.0233789 2.02173 0.000964033C3.37798 -0.0233789 4.27407 1.07205 3.95923 2.36223Z" fill="#F0EFEB"/>
</svg>
