<svg width="17" height="16" viewBox="0 0 17 16" fill="none" xmlns="http://www.w3.org/2000/svg">
<path d="M16.3833 15.9939C15.3661 15.9696 14.3731 15.9696 13.356 15.9939C13.138 15.9939 13.0896 15.9452 13.0896 15.7261C13.0896 13.9248 13.0896 12.0991 13.0896 10.2977C13.0896 9.88385 13.0653 9.47002 12.9442 9.08053C12.581 7.8147 11.1278 7.35218 10.0864 8.20418C9.5294 8.64236 9.31143 9.25093 9.31143 9.98122C9.31143 11.6852 9.31143 13.3892 9.31143 15.0932C9.31143 15.3123 9.28721 15.5314 9.31143 15.7748C9.33564 15.9696 9.23877 16.0183 9.06924 15.9939C8.02783 15.9939 7.01064 15.9939 5.96924 15.9939C5.77549 15.9939 5.72705 15.9452 5.72705 15.7505C5.75127 14.2169 5.75127 12.6833 5.75127 11.1253C5.75127 9.22659 5.75127 7.32784 5.72705 5.45344C5.72705 5.23435 5.77549 5.18566 5.96924 5.18566C7.01064 5.18566 8.02783 5.18566 9.06924 5.18566C9.26299 5.18566 9.31143 5.23435 9.31143 5.42909C9.31143 5.81858 9.31143 6.20807 9.31143 6.67058C9.38408 6.59755 9.4083 6.57321 9.43252 6.54887C10.3771 5.16132 11.7091 4.77183 13.2833 5.01526C15.0997 5.30738 16.2622 6.57321 16.5528 8.52064C16.6255 8.98316 16.6497 9.44567 16.6497 9.90819C16.6497 11.8556 16.6497 13.7787 16.6497 15.7261C16.6497 15.9209 16.6013 15.9939 16.3833 15.9939Z" fill="#292929"/>
<path d="M3.78965 10.5902C3.78965 12.2943 3.78965 13.9983 3.78965 15.7023C3.78965 15.9213 3.74121 15.9944 3.52324 15.9944C2.50606 15.97 1.48887 15.9944 0.47168 15.9944C0.27793 15.9944 0.229492 15.9457 0.229492 15.7509C0.229492 12.3186 0.229492 8.8619 0.229492 5.42955C0.229492 5.25915 0.27793 5.18612 0.47168 5.18612C1.51309 5.18612 2.55449 5.18612 3.5959 5.18612C3.81387 5.18612 3.83809 5.25915 3.83809 5.45389C3.78965 7.1579 3.78965 8.8619 3.78965 10.5902Z" fill="#292929"/>
<path d="M3.95923 2.36217C3.71704 3.33588 2.72407 3.89577 1.58579 3.70103C0.374851 3.50628 -0.303274 2.31348 0.132663 1.14502C0.423288 0.414732 1.12563 -0.0234399 2.02173 0.000902997C3.37798 -0.0234399 4.27407 1.07199 3.95923 2.36217Z" fill="#292929"/>
</svg>
