<svg width="20" height="17" viewBox="0 0 20 17" fill="none" xmlns="http://www.w3.org/2000/svg">
<path d="M19.3333 16.1054L17.8871 14.6578C17.7349 14.5816 17.6588 14.353 17.6588 14.2006V2.61968C17.6588 2.46729 17.7349 2.23872 17.8871 2.08634L19.3333 0.410151V0.333961H14.1575L10.2756 10.1625L5.86089 0.333961H0.532808V0.410151L1.90289 2.31491C2.20735 2.61967 2.28346 3.07682 2.28346 3.45777V11.8387C2.35958 12.2959 2.28346 12.8292 2.05512 13.2863L0 16.1054V16.1816H5.48031V16.1054L3.4252 13.3625C3.19685 12.9054 3.12073 12.4482 3.19685 11.9149V4.29587C3.27297 4.44825 3.34908 4.44825 3.4252 4.75301L8.60105 16.334H8.67716L13.7008 3.76253C13.6247 4.21968 13.6247 4.75301 13.6247 5.13396V14.1244C13.6247 14.353 13.5486 14.5054 13.3963 14.6578L11.874 16.1054V16.1816H19.3333V16.1054Z" fill="#292929"/>
</svg>
