<svg width="20" height="17" viewBox="0 0 20 17" fill="none" xmlns="http://www.w3.org/2000/svg">
<path d="M19.3333 16.1055L17.8871 14.6579C17.7349 14.5817 17.6588 14.3531 17.6588 14.2007V2.61976C17.6588 2.46738 17.7349 2.23881 17.8871 2.08643L19.3333 0.410235V0.334045H14.1575L10.2756 10.1626L5.86089 0.334045H0.532808V0.410235L1.90289 2.315C2.20735 2.61976 2.28346 3.0769 2.28346 3.45785V11.8388C2.35958 12.2959 2.28346 12.8293 2.05512 13.2864L0 16.1055V16.1817H5.48031V16.1055L3.4252 13.3626C3.19685 12.9055 3.12073 12.4483 3.19685 11.915V4.29595C3.27297 4.44833 3.34908 4.44833 3.4252 4.75309L8.60105 16.334H8.67716L13.7008 3.76262C13.6247 4.21976 13.6247 4.75309 13.6247 5.13405V14.1245C13.6247 14.3531 13.5486 14.5055 13.3963 14.6579L11.874 16.1055V16.1817H19.3333V16.1055Z" fill="#F0EFEB"/>
</svg>
