<svg width="22" height="158" viewBox="0 0 22 158" fill="none" xmlns="http://www.w3.org/2000/svg">
<path d="M20.3333 64.1055L18.8871 62.6579C18.7349 62.5817 18.6588 62.3531 18.6588 62.2007V50.6198C18.6588 50.4674 18.7349 50.2388 18.8871 50.0864L20.3333 48.4102V48.334H15.1575L11.2756 58.1626L6.86089 48.334H1.53281V48.4102L2.90289 50.315C3.20735 50.6198 3.28346 51.0769 3.28346 51.4579V59.8388C3.35958 60.2959 3.28346 60.8293 3.05512 61.2864L1 64.1055V64.1817H6.48031V64.1055L4.4252 61.3626C4.19685 60.9055 4.12073 60.4483 4.19685 59.915V52.296C4.27297 52.4483 4.34908 52.4483 4.4252 52.7531L9.60105 64.334H9.67716L14.7008 51.7626C14.6247 52.2198 14.6247 52.7531 14.6247 53.134V62.1245C14.6247 62.3531 14.5486 62.5055 14.3963 62.6579L12.874 64.1055V64.1817H20.3333V64.1055Z" fill="#F0EFEB"/>
<path d="M8.33397 150C8.33397 148.528 9.52756 147.333 11.0003 147.333C12.4731 147.333 13.6673 148.528 13.6673 150C13.6673 151.473 12.4731 152.667 11.0003 152.667C9.52756 152.667 8.33397 151.473 8.33397 150ZM6.89225 150C6.89225 152.269 8.73143 154.108 11.0003 154.108C13.2692 154.108 15.1084 152.269 15.1084 150C15.1084 147.731 13.2692 145.892 11.0003 145.892C8.73143 145.892 6.89225 147.731 6.89225 150ZM14.311 145.729C14.3109 145.919 14.3671 146.105 14.4726 146.263C14.578 146.421 14.7279 146.544 14.9033 146.617C15.0787 146.689 15.2717 146.708 15.4579 146.671C15.6442 146.634 15.8153 146.543 15.9496 146.409C16.0839 146.275 16.1754 146.104 16.2125 145.917C16.2497 145.731 16.2307 145.538 16.1581 145.363C16.0855 145.187 15.9625 145.037 15.8047 144.932C15.6469 144.826 15.4613 144.77 15.2714 144.77H15.271C15.0165 144.77 14.7724 144.871 14.5924 145.051C14.4124 145.231 14.3112 145.475 14.311 145.729ZM7.76819 156.512C6.98819 156.477 6.56424 156.347 6.2825 156.237C5.90898 156.092 5.64247 155.919 5.36227 155.639C5.08207 155.359 4.90862 155.093 4.76385 154.719C4.65402 154.438 4.52409 154.013 4.48864 153.233C4.44985 152.39 4.44211 152.137 4.44211 150C4.44211 147.864 4.45049 147.611 4.48864 146.767C4.52416 145.987 4.65504 145.564 4.76385 145.282C4.90926 144.908 5.08245 144.642 5.36227 144.361C5.64209 144.081 5.90834 143.908 6.2825 143.763C6.56411 143.653 6.98819 143.523 7.76819 143.488C8.61149 143.449 8.86481 143.441 11.0003 143.441C13.1358 143.441 13.3894 143.45 14.2334 143.488C15.0134 143.523 15.4367 143.654 15.7191 143.763C16.0926 143.908 16.3591 144.082 16.6393 144.361C16.9195 144.641 17.0923 144.908 17.2378 145.282C17.3476 145.563 17.4775 145.987 17.513 146.767C17.5518 147.611 17.5595 147.864 17.5595 150C17.5595 152.137 17.5518 152.389 17.513 153.233C17.4774 154.013 17.3469 154.437 17.2378 154.719C17.0923 155.093 16.9192 155.359 16.6393 155.639C16.3595 155.918 16.0926 156.092 15.7191 156.237C15.4375 156.347 15.0134 156.477 14.2334 156.512C13.3901 156.551 13.1368 156.559 11.0003 156.559C8.86385 156.559 8.61123 156.551 7.76819 156.512ZM7.70195 142.048C6.85027 142.087 6.26829 142.222 5.76005 142.42C5.23369 142.624 4.7881 142.898 4.34284 143.343C3.89757 143.787 3.62428 144.234 3.42005 144.76C3.22228 145.269 3.08724 145.85 3.04845 146.702C3.00902 147.555 3 147.828 3 150C3 152.173 3.00902 152.446 3.04845 153.299C3.08724 154.15 3.22228 154.732 3.42005 155.241C3.62428 155.767 3.89764 156.213 4.34284 156.658C4.78804 157.102 5.23369 157.376 5.76005 157.581C6.26925 157.778 6.85027 157.913 7.70195 157.952C8.55542 157.991 8.82769 158.001 11.0003 158.001C13.173 158.001 13.4457 157.992 14.2987 157.952C15.1504 157.913 15.732 157.778 16.2406 157.581C16.7666 157.376 17.2125 157.102 17.6578 156.658C18.1031 156.213 18.3758 155.767 18.5806 155.241C18.7784 154.732 18.914 154.15 18.9522 153.299C18.991 152.445 19 152.173 19 150C19 147.828 18.991 147.555 18.9522 146.702C18.9134 145.85 18.7784 145.268 18.5806 144.76C18.3758 144.234 18.1024 143.788 17.6578 143.343C17.2132 142.898 16.7666 142.624 16.2412 142.42C15.732 142.222 15.1504 142.087 14.2993 142.048C13.4463 142.01 13.1736 142 11.001 142C8.82833 142 8.55542 142.009 7.70195 142.048Z" fill="#F0EFEB"/>
<path d="M18.3833 15.994C17.3661 15.9696 16.3731 15.9696 15.356 15.994C15.138 15.994 15.0896 15.9453 15.0896 15.7262C15.0896 13.9248 15.0896 12.0991 15.0896 10.2977C15.0896 9.88391 15.0653 9.47008 14.9442 9.08059C14.581 7.81476 13.1278 7.35225 12.0864 8.20425C11.5294 8.64242 11.3114 9.25099 11.3114 9.98128C11.3114 11.6853 11.3114 13.3893 11.3114 15.0933C11.3114 15.3124 11.2872 15.5315 11.3114 15.7749C11.3356 15.9696 11.2388 16.0183 11.0692 15.994C10.0278 15.994 9.01064 15.994 7.96924 15.994C7.77549 15.994 7.72705 15.9453 7.72705 15.7506C7.75127 14.2169 7.75127 12.6833 7.75127 11.1254C7.75127 9.22665 7.75127 7.3279 7.72705 5.4535C7.72705 5.23441 7.77549 5.18573 7.96924 5.18573C9.01064 5.18573 10.0278 5.18573 11.0692 5.18573C11.263 5.18573 11.3114 5.23441 11.3114 5.42916C11.3114 5.81864 11.3114 6.20813 11.3114 6.67065C11.3841 6.59762 11.4083 6.57327 11.4325 6.54893C12.3771 5.16139 13.7091 4.7719 15.2833 5.01533C17.0997 5.30744 18.2622 6.57327 18.5528 8.52071C18.6255 8.98322 18.6497 9.44574 18.6497 9.90825C18.6497 11.8557 18.6497 13.7788 18.6497 15.7262C18.6497 15.921 18.6013 15.994 18.3833 15.994Z" fill="#F0EFEB"/>
<path d="M5.78965 10.5903C5.78965 12.2943 5.78965 13.9983 5.78965 15.7023C5.78965 15.9214 5.74121 15.9944 5.52324 15.9944C4.50606 15.9701 3.48887 15.9944 2.47168 15.9944C2.27793 15.9944 2.22949 15.9457 2.22949 15.751C2.22949 12.3186 2.22949 8.86194 2.22949 5.42959C2.22949 5.25919 2.27793 5.18616 2.47168 5.18616C3.51309 5.18616 4.55449 5.18616 5.5959 5.18616C5.81387 5.18616 5.83809 5.25919 5.83809 5.45393C5.78965 7.15793 5.78965 8.86194 5.78965 10.5903Z" fill="#F0EFEB"/>
<path d="M5.95923 2.36223C5.71704 3.33594 4.72407 3.89583 3.58579 3.70109C2.37485 3.50634 1.69673 2.31354 2.13266 1.14508C2.42329 0.414793 3.12563 -0.0233789 4.02173 0.000964033C5.37798 -0.0233789 6.27407 1.07205 5.95923 2.36223Z" fill="#F0EFEB"/>
<path d="M6.20496 96.6317C6.82072 96.6317 7.38911 96.6791 7.91014 96.8212C8.43117 96.9159 8.85746 97.1054 9.23639 97.3422C9.61532 97.579 9.89952 97.9106 10.089 98.3369C10.2784 98.7632 10.3732 99.2842 10.3732 99.8526C10.3732 100.516 10.2311 101.084 9.89952 101.51C9.61532 101.937 9.14166 102.316 8.57327 102.6C9.37849 102.837 9.99425 103.263 10.3732 103.831C10.7521 104.4 10.9889 105.11 10.9889 105.915C10.9889 106.579 10.8468 107.147 10.61 107.621C10.3732 108.094 9.99425 108.521 9.56796 108.805C9.14166 109.089 8.62063 109.326 8.05224 109.468C7.48385 109.61 6.91545 109.705 6.34706 109.705H0V96.6317H6.20496ZM5.82603 101.937C6.34706 101.937 6.77335 101.795 7.10492 101.558C7.43648 101.321 7.57858 100.895 7.57858 100.374C7.57858 100.089 7.53121 99.8052 7.43648 99.6158C7.34175 99.4263 7.19965 99.2842 7.01018 99.1421C6.82072 99.0474 6.63126 98.9527 6.39442 98.9053C6.15759 98.8579 5.92076 98.8579 5.63657 98.8579H2.88933V101.937H5.82603ZM5.96813 107.526C6.25233 107.526 6.53652 107.479 6.77335 107.431C7.01018 107.384 7.24701 107.289 7.43648 107.147C7.62594 107.005 7.76804 106.863 7.91014 106.626C8.00487 106.389 8.09961 106.105 8.09961 105.773C8.09961 105.11 7.91014 104.637 7.53121 104.305C7.15228 104.021 6.63126 103.879 6.0155 103.879H2.88933V107.526H5.96813ZM15.1098 107.479C15.4887 107.857 16.0571 108.047 16.815 108.047C17.336 108.047 17.8097 107.905 18.1886 107.668C18.5675 107.384 18.8043 107.1 18.8991 106.815H21.22C20.8411 107.952 20.2727 108.757 19.5148 109.278C18.757 109.752 17.857 110.036 16.7676 110.036C16.0097 110.036 15.3466 109.894 14.7309 109.657C14.1151 109.421 13.6414 109.089 13.2151 108.615C12.7888 108.189 12.4573 107.668 12.2678 107.052C12.031 106.436 11.9363 105.773 11.9363 105.016C11.9363 104.305 12.031 103.642 12.2678 103.026C12.5047 102.41 12.8362 101.889 13.2625 101.416C13.6888 100.989 14.2098 100.61 14.7782 100.374C15.394 100.137 16.0097 99.9947 16.7676 99.9947C17.5728 99.9947 18.2833 100.137 18.8991 100.468C19.5148 100.8 19.9885 101.179 20.3674 101.747C20.7464 102.268 21.0306 102.884 21.22 103.547C21.3147 104.21 21.3621 104.873 21.3147 105.631H14.4467C14.4467 106.389 14.7309 107.1 15.1098 107.479ZM18.0939 102.505C17.7623 102.174 17.2413 101.984 16.6255 101.984C16.1992 101.984 15.8676 102.079 15.5835 102.221C15.2993 102.363 15.1098 102.552 14.9203 102.742C14.7309 102.931 14.6361 103.168 14.5888 103.405C14.5414 103.642 14.494 103.831 14.494 104.021H18.757C18.6622 103.31 18.4254 102.837 18.0939 102.505ZM13.9256 97.5317H19.2306V98.8106H13.9256V97.5317Z" fill="#F0EFEB"/>
</svg>
